<?xml version="1.0" encoding="UTF-8"?>
<svg xmlns="http://www.w3.org/2000/svg" xmlns:xlink="http://www.w3.org/1999/xlink" viewBox="0 0 150 150" width="150px" height="150px">
<g id="surface329848947">
<path style=" stroke:none;fill-rule:nonzero;fill:rgb(100%,100%,100%);fill-opacity:1;" d="M 15.9375 3 L 15.1875 4.96875 L 6.1875 28.96875 L 6 29.4375 L 6 129 L 39 129 L 39 147 L 61.21875 147 L 62.15625 146.15625 L 79.3125 129 L 106.21875 129 L 107.15625 128.15625 L 144 91.3125 L 144 3 Z M 20.0625 9 L 138 9 L 138 88.78125 L 103.78125 123 L 76.78125 123 L 58.78125 141 L 45 141 L 45 123 L 12 123 L 12 30.5625 Z M 30 15 L 30 105 L 54 105 L 54 127.21875 L 59.15625 122.15625 L 76.3125 105 L 112.21875 105 L 113.15625 104.15625 L 131.15625 86.15625 L 132 85.21875 L 132 15 Z M 36 21 L 126 21 L 126 82.6875 L 109.6875 99 L 73.78125 99 L 72.84375 99.84375 L 60 112.6875 L 60 99 L 36 99 Z M 60 39 L 60 81 L 78 81 L 78 39 Z M 90 39 L 90 81 L 108 81 L 108 39 Z M 66 45 L 72 45 L 72 75 L 66 75 Z M 96 45 L 102 45 L 102 75 L 96 75 Z M 96 45 "/>
</g>
</svg>
